<?xml version="1.0" encoding="utf-8"?>
<!-- Generator: Adobe Illustrator 16.0.3, SVG Export Plug-In . SVG Version: 6.00 Build 0)  -->
<!DOCTYPE svg PUBLIC "-//W3C//DTD SVG 1.1//EN" "http://www.w3.org/Graphics/SVG/1.1/DTD/svg11.dtd">
<svg version="1.1" id="fb" xmlns="http://www.w3.org/2000/svg" xmlns:xlink="http://www.w3.org/1999/xlink" x="0px" y="0px"
	 width="100%" height="100%" viewBox="0 0 200 369" enable-background="new 0 0 200 369" xml:space="preserve">
<g>
	<path d="M137.6,0.5H200v70.6c-18.99,0.04-37.97-0.01-56.96,0.02c-3.25-0.14-6.09,1.87-8.29,4.07c-4.68,4.82-7.04,11.61-6.96,18.29
		c0.04,11.61,0.01,23.23,0.02,34.84c23.5-0.01,47.01,0.01,70.52-0.01c0.04,23.55-0.01,47.1,0.02,70.64
		c-23.47-0.04-46.95,0.08-70.42-0.06c-0.29,56.87-0.04,113.74-0.12,170.61H57.4c-0.03-56.85-0.05-113.7,0.01-170.55
		c-19.14,0-38.27,0.01-57.41,0v-70.63c19.13,0.02,38.25-0.05,57.38,0.04c0.02-12.61-0.02-25.21,0.01-37.82
		c0.27-27.3,12.53-54.63,33.97-71.82C104.4,8.04,120.8,1.74,137.6,0.5z"/>
</g>
</svg>
