<?xml version="1.0" encoding="UTF-8" ?>
<!DOCTYPE svg PUBLIC "-//W3C//DTD SVG 1.1//EN" "http://www.w3.org/Graphics/SVG/1.1/DTD/svg11.dtd">
<svg id="lupa" width="200pt" height="200pt" viewBox="0 0 200 200" version="1.1" xmlns="http://www.w3.org/2000/svg">
<g id="#000000ff">
<path fill="#000000" opacity="1.00" d=" M 75.16 2.53 C 80.60 0.98 86.43 1.10 91.85 2.63 C 109.77 4.39 126.96 12.62 139.68 25.35 C 151.66 37.02 159.77 52.59 162.51 69.09 C 165.77 88.37 161.86 108.90 151.18 125.34 C 164.72 138.96 178.33 152.51 191.91 166.10 C 194.79 169.01 196.97 172.78 197.60 176.86 C 198.94 188.22 188.33 199.05 177.02 198.49 C 172.63 197.96 168.47 195.80 165.37 192.67 C 151.66 178.97 138.00 165.25 124.26 151.59 C 106.99 162.07 85.65 165.35 65.96 161.01 C 49.77 157.48 34.79 148.74 23.69 136.45 C 12.99 124.64 5.82 109.60 3.69 93.78 C 1.83 87.68 2.12 81.20 2.69 74.92 C 3.60 73.37 3.62 71.54 3.90 69.81 C 6.81 50.80 17.00 33.07 31.78 20.80 C 43.99 10.57 59.31 4.11 75.16 2.53 M 77.32 27.48 C 63.48 28.92 50.35 35.90 41.32 46.47 C 31.06 58.27 26.15 74.59 28.44 90.07 C 30.14 102.70 36.44 114.64 45.86 123.22 C 56.07 132.73 70.03 138.11 83.99 137.82 C 100.94 137.78 117.54 129.19 127.58 115.57 C 136.46 103.86 140.28 88.49 137.94 73.98 C 135.66 59.00 126.86 45.18 114.29 36.72 C 103.58 29.37 90.23 26.06 77.32 27.48 Z" />
<path fill="#000000" opacity="1.00" d=" M 64.40 46.48 C 76.95 40.35 92.42 40.74 104.68 47.40 C 115.15 52.86 122.59 63.11 125.59 74.42 C 118.35 66.41 109.28 59.86 98.84 56.78 C 80.20 50.71 58.77 55.36 44.09 68.28 C 47.99 58.92 55.26 50.92 64.40 46.48 Z" />
</g>
</svg>
