<?xml version="1.0" encoding="utf-8"?>
<!-- Generator: Adobe Illustrator 16.0.3, SVG Export Plug-In . SVG Version: 6.00 Build 0)  -->
<!DOCTYPE svg PUBLIC "-//W3C//DTD SVG 1.1//EN" "http://www.w3.org/Graphics/SVG/1.1/DTD/svg11.dtd">
<svg version="1.1" id="vk" xmlns="http://www.w3.org/2000/svg" xmlns:xlink="http://www.w3.org/1999/xlink" x="0px" y="0px"
	 width="100%" height="100%" viewBox="0 0 200 200" enable-background="new 0 0 200 200" xml:space="preserve">
<g>
	<path d="M75.29,44.23c11.68-1.78,23.74-2.17,35.36,0.21c4.97,0.77,6.74,6.18,6.68,10.56c0.09,11.67-1.06,23.35-0.47,35.01
		c0.17,3.58,1.75,8.78,6.19,8.57c4.08-2.23,7.14-5.9,9.86-9.59c7.72-10.85,14.16-22.62,19.02-35.02c1-2.3,2.23-5.39,5.18-5.49
		c11.65-0.27,23.31-0.06,34.96-0.35c2.69,0.03,6.19,0.23,7.59,2.96c0.9,4.08-1.17,8.03-2.94,11.59c-7.38,13.75-18,25.35-26.82,38.15
		c-1.55,2.38-3.12,5.18-2.36,8.12c0.88,3.21,3.47,5.5,5.71,7.81c8.65,8.39,17.86,16.49,24.32,26.79c1.77,2.72,2.81,6.18,1.84,9.37
		c-1.6,2.31-4.4,3.4-7.13,3.47c-9.78,0.41-19.59,0.08-29.37,0.7c-3.53,0.05-6.87-1.48-9.96-3.05c-9.14-5.34-14.26-15.15-22.41-21.64
		c-2.16-1.81-5.69-3.22-8.02-0.91c-5.63,4.75-5.25,12.77-5.84,19.43c-0.19,3.82-4.32,5.7-7.7,5.55c-7.94-0.2-16.01,0.73-23.81-1.14
		c-5.66-1.26-11.17-3.27-16.21-6.16c-8.48-4.92-16.7-10.57-23.13-18.06C26.43,107.93,11.59,81.19,0,53.36v-2.28
		c1.27-1.69,3.14-2.85,5.32-2.78c8.88-0.29,17.78,0.04,26.67-0.4c4.21-0.4,9.05,1.39,10.47,5.72c3.86,9.43,8.68,18.4,13.41,27.4
		c3.35,6.06,6.89,12.41,12.61,16.56c2.08,1.62,6.09,2.08,7.23-0.86c2.45-4.5,2.44-9.81,3-14.78c0.23-8.2,0.6-16.71-2.14-24.57
		c-1.59-4.6-6.87-5.4-10.78-7.09C68.29,47.39,71.35,44.75,75.29,44.23z"/>
</g>
</svg>
