<?xml version="1.0" encoding="utf-8"?>
<!-- Generator: Adobe Illustrator 17.0.0, SVG Export Plug-In . SVG Version: 6.00 Build 0)  -->
<!DOCTYPE svg PUBLIC "-//W3C//DTD SVG 1.1//EN" "http://www.w3.org/Graphics/SVG/1.1/DTD/svg11.dtd">
<svg version="1.1" id="Слой_1" xmlns="http://www.w3.org/2000/svg" xmlns:xlink="http://www.w3.org/1999/xlink" x="0px" y="0px"
	 width="76.853px" height="71.601px" viewBox="0 0 76.853 71.601" enable-background="new 0 0 76.853 71.601" xml:space="preserve">
<g id="Слой_3">
</g>
<path fill="#0D2E65" d="M5.16,35.158c4.885-1.582-0.688-9.22-0.688-9.22C0.482,34.745,5.16,35.158,5.16,35.158z M7.362,40.318
	c5.091,0.275,2.27-8.944,2.27-8.944C3.096,38.254,7.362,40.318,7.362,40.318z M9.426,46.855c5.091,0.275,2.27-8.944,2.27-8.944
	C5.16,44.79,9.426,46.855,9.426,46.855z M12.178,52.772c5.091-0.069,1.72-9.082,1.72-9.082
	C7.844,51.052,12.178,52.772,12.178,52.772z M16.031,57.932c5.023-0.757,0.619-9.22,0.619-9.22
	C11.49,56.762,16.031,57.932,16.031,57.932z M20.71,52.29c-4.128,8.738,0.482,9.22,0.482,9.22
	C26.145,60.065,20.71,52.29,20.71,52.29z M26.695,65.018c4.679-2.064-1.445-9.151-1.445-9.151
	C22.017,65.087,26.695,65.018,26.695,65.018z M29.654,57.932c-0.757,9.77,3.715,8.325,3.715,8.325
	C37.429,62.954,29.654,57.932,29.654,57.932z M4.816,41.213c0,0,3.371-3.371-4.816-7.706C0,33.576,0.069,43.208,4.816,41.213z
	 M7.224,47.955c0,0,2.752-3.991-6.055-6.674C1.238,41.35,2.89,50.845,7.224,47.955z M11.077,53.941c0,0,1.789-4.61-7.362-4.816
	C3.715,49.125,7.568,57.863,11.077,53.941z M15.137,59.583c0,0,0.963-4.885-8.05-3.371C7.087,56.143,12.316,64.055,15.137,59.583z
	 M21.122,64.262c0,0,0-4.954-8.532-1.514C12.591,62.748,19.265,69.284,21.122,64.262z M26.833,67.22c0,0-1.032-4.816-8.669,0.619
	C18.164,67.839,26.076,72.587,26.833,67.22z M34.126,67.908c0,0-2.339-4.266-8.119,3.303C26.007,71.211,34.883,73.275,34.126,67.908
	z M46.304,12.728c0.069,0,0.138,0,0.138,0c0.069,0,0.138,0,0.206-0.069c0.069-0.069,0.138-0.138,0.138-0.206
	c0-0.069,0-0.138,0-0.138v-1.514c0-0.069,0-0.138-0.069-0.206c-0.069-0.069-0.138-0.138-0.206-0.138
	c-0.069,0-0.138-0.069-0.138-0.069c-0.069,0-0.138,0-0.206,0.069c-0.069,0.069-0.138,0.138-0.138,0.206v0.069v0.069v1.514
	c0,0.069,0,0.138,0.069,0.206C46.167,12.66,46.235,12.728,46.304,12.728z M41.282,12.728c0.069,0,0.138,0,0.138,0
	c0.069,0,0.138,0,0.206-0.069c0.069-0.069,0.138-0.138,0.138-0.206c0-0.069,0-0.138,0-0.138v-1.514c0-0.069,0-0.138-0.069-0.206
	s-0.138-0.138-0.206-0.138s-0.138-0.069-0.138-0.069c-0.069,0-0.138,0-0.206,0.069s-0.138,0.138-0.138,0.206v0.069v0.069v1.514
	c0,0.069,0,0.138,0.069,0.206C41.144,12.66,41.213,12.728,41.282,12.728z M36.741,45.41c-0.069,0-0.069,0-0.138,0s-0.138,0-0.138,0
	c-0.069,0.069-0.069,0.069-0.138,0.138c0,0.069,0,0.069,0,0.138v1.651c0,0.069,0,0.138,0.069,0.206
	c0.069,0.069,0.069,0.069,0.138,0.138c0.069,0,0.069,0,0.138,0c0.069,0,0.138,0,0.206-0.069s0.069-0.069,0.138-0.138
	c0-0.069,0-0.069,0-0.138v-1.651c0-0.069,0-0.138-0.069-0.206C36.878,45.479,36.809,45.41,36.741,45.41z M38.185,60.34
	C67.22,47.336,65.706,6.467,65.706,6.467L38.185,0L10.664,6.467C10.664,6.467,9.151,47.336,38.185,60.34z M38.117,2.89V2.752
	l0.138,0.069l0.138-0.069v0.069l24.287,5.642c0,0-0.826,36.465-24.287,48.85v0.206c-0.069,0-0.138-0.069-0.138-0.069
	c-0.069,0-0.138,0.069-0.138,0.069v-0.206C14.655,44.928,13.829,8.463,13.829,8.463L38.117,2.89z M38.254,55.868
	c1.858-0.757,20.297-9.357,22.98-46.442l-22.98-5.367l-22.98,5.367C17.957,46.511,36.397,55.111,38.254,55.868z M33.025,47.68
	C33.025,47.749,33.025,47.749,33.025,47.68l0.619,0.069c0.069,0,0.138,0,0.138,0.069s0.069,0.069,0.069,0.138s0,0.138-0.069,0.138
	c-0.069,0.069-0.069,0.069-0.138,0.069h-1.032c-0.069,0-0.138,0-0.206-0.069c0,0,0-0.069,0-0.138c0-0.069,0-0.069,0-0.138
	l0.963-1.995c0-0.069,0.069-0.138,0.069-0.138c0-0.069,0-0.138-0.069-0.206c0,0,0-0.069-0.069-0.069l-0.069-0.069
	c-0.069,0-0.069-0.069-0.138-0.069s-0.138,0-0.206,0.069c-0.069,0-0.069,0.069-0.138,0.138c0,0.069-0.069,0.069-0.069,0.138v0.069
	l0,0l0,0c0,0.069-0.069,0.069-0.069,0.138c-0.069,0-0.069,0.069-0.138,0.069l0,0c-0.069,0-0.138,0-0.138-0.069
	c-0.069-0.069-0.069-0.069-0.069-0.138l0,0c0-0.138,0-0.275,0.069-0.344c0.069-0.138,0.138-0.206,0.275-0.344
	c0.138-0.069,0.275-0.138,0.413-0.138s0.206,0,0.344,0.069c0.138,0.069,0.206,0.138,0.344,0.275
	c0.069,0.138,0.138,0.275,0.138,0.413s0,0.206-0.069,0.344l-0.757,1.651C32.956,47.68,32.956,47.68,33.025,47.68z M37.429,47.405
	c0,0.138-0.069,0.275-0.138,0.413c-0.069,0.138-0.206,0.206-0.344,0.275c-0.138,0.069-0.206,0.069-0.344,0.069
	c-0.069,0-0.138,0-0.206-0.069s-0.138-0.069-0.206-0.069c-0.138-0.069-0.206-0.206-0.275-0.344
	c-0.069-0.069-0.069-0.206-0.069-0.275v-1.651c0-0.138,0.069-0.275,0.138-0.413c0.069-0.138,0.206-0.206,0.344-0.275
	c0.069,0,0.069-0.069,0.138-0.069s0.069,0,0.138,0c0.138,0,0.275,0.069,0.413,0.138s0.206,0.206,0.275,0.344
	c0.069,0.069,0.069,0.206,0.069,0.275v1.651H37.429z M40.662,48.093c-0.069,0.069-0.138,0.069-0.138,0.069h-0.826
	c-0.069,0-0.138,0-0.138-0.069c-0.069-0.069-0.069-0.069-0.069-0.138c0-0.069,0-0.138,0.069-0.138s0.069-0.069,0.138-0.069h0.138
	h0.069c0,0,0,0,0-0.069v-1.72c0-0.069,0-0.069-0.069-0.069h-0.069c-0.069,0.069-0.069,0.069-0.138,0.069s-0.069,0-0.138-0.069
	c-0.069-0.069-0.069-0.069-0.069-0.138s0-0.138,0.069-0.138l0.55-0.619c0.069-0.069,0.069-0.069,0.138-0.069
	c0.069,0,0.069,0,0.138,0.069l0.069,0.069v0.069l0,0l0,0v2.477v0.069c0,0,0,0,0.069,0h0.138c0.069,0,0.138,0,0.138,0.069
	s0.069,0.069,0.069,0.138C40.731,48.024,40.662,48.093,40.662,48.093z M44.24,47.336c0,0.206-0.069,0.344-0.138,0.482
	s-0.206,0.275-0.344,0.275c-0.138,0.069-0.275,0.069-0.413,0.069c-0.069,0-0.138,0-0.275-0.069c-0.069,0-0.138-0.069-0.206-0.138
	c-0.138-0.069-0.275-0.206-0.275-0.344c-0.069-0.138-0.069-0.206-0.069-0.344c0-0.069,0-0.138,0.069-0.138
	c0.069-0.069,0.069-0.069,0.138-0.069s0.138,0,0.138,0.069c0.069,0.069,0.069,0.069,0.069,0.138c0,0.069,0,0.138,0.069,0.206
	c0.069,0.069,0.138,0.138,0.206,0.138h0.069h0.069c0.069,0,0.138,0,0.206-0.069c0.069-0.069,0.138-0.138,0.138-0.206
	c0-0.069,0-0.138,0-0.138v-0.344c0-0.069,0-0.138-0.069-0.206c-0.069-0.069-0.069-0.138-0.138-0.138c-0.069,0-0.069,0-0.138,0H43.07
	c-0.069,0-0.069,0-0.138,0l-0.069-0.069c0-0.069,0-0.069,0-0.138s0-0.069,0.069-0.138l0.55-0.688V45.41l-0.069-0.069h-0.688
	c-0.069,0-0.138,0-0.138-0.069c-0.069-0.069-0.069-0.069-0.069-0.138s0-0.138,0.069-0.138c0.069-0.069,0.069-0.069,0.138-0.069
	h1.238c0.069,0,0.069,0,0.138,0l0.069,0.069c0,0.069,0,0.069,0,0.138s0,0.069-0.069,0.138l-0.55,0.757v0.069
	c0,0,0,0.069,0.069,0.069c0,0,0,0,0.069,0s0,0,0.069,0c0.069,0.069,0.206,0.138,0.275,0.206c0.069,0.069,0.138,0.138,0.206,0.275
	c0.069,0.138,0.069,0.206,0.069,0.344v0.344H44.24z M50.708,10.183c0-0.069,0-0.138,0.069-0.138s0.069-0.069,0.138-0.069
	s0.138,0,0.138,0.069c0.069,0.069,0.069,0.069,0.069,0.138v2.477v0.069c0,0,0,0,0.069,0h0.55c0.069,0,0.138,0,0.138,0.069
	c0.069,0.069,0.069,0.069,0.069,0.138s0,0.138-0.069,0.138c-0.069,0.069-0.069,0.069-0.138,0.069h-0.826
	c-0.069,0-0.138,0-0.138-0.069s-0.069-0.069-0.069-0.138C50.708,12.935,50.708,10.183,50.708,10.183z M45.616,10.802
	c0-0.069,0-0.138,0.069-0.275s0.069-0.138,0.138-0.206c0.069-0.138,0.206-0.275,0.344-0.275c0.138-0.069,0.206-0.069,0.344-0.069
	c0.206,0,0.344,0.069,0.482,0.138c0.138,0.069,0.275,0.206,0.275,0.344c0.069,0.138,0.069,0.206,0.069,0.344v1.514
	c0,0.138-0.069,0.344-0.138,0.482c-0.069,0.069-0.069,0.138-0.138,0.206c-0.069,0.069-0.138,0.069-0.206,0.138
	c-0.138,0.069-0.206,0.069-0.344,0.069c-0.138,0-0.344-0.069-0.482-0.138c-0.069-0.069-0.138-0.069-0.206-0.138
	c-0.069-0.069-0.069-0.138-0.138-0.206c-0.069-0.138-0.069-0.206-0.069-0.344V10.802z M40.594,10.802c0-0.069,0-0.138,0.069-0.275
	s0.069-0.138,0.138-0.206c0.069-0.138,0.206-0.275,0.344-0.275c0.138-0.069,0.206-0.069,0.344-0.069
	c0.206,0,0.344,0.069,0.482,0.138c0.138,0.069,0.275,0.206,0.275,0.344c0.069,0.138,0.069,0.206,0.069,0.344v1.514
	c0,0.138-0.069,0.344-0.138,0.482c-0.069,0.069-0.069,0.138-0.138,0.206c-0.069,0.069-0.138,0.069-0.206,0.138
	c-0.138,0.069-0.206,0.069-0.344,0.069c-0.138,0-0.344-0.069-0.482-0.138c-0.069-0.069-0.138-0.069-0.206-0.138
	s-0.069-0.138-0.138-0.206c-0.069-0.138-0.069-0.275-0.069-0.413V10.802z M40.112,18.026v-0.963c0-0.482,0.138-0.894,0.413-1.101
	c0.275-0.206,0.688-0.344,1.307-0.344h10.802c0.55,0,0.894,0.138,1.101,0.344c0.206,0.206,0.275,0.619,0.275,1.17v1.032v1.858
	h-1.789c-0.344,0-0.55-0.138-0.757-0.344c-0.206-0.206-0.275-0.482-0.275-0.826c0-0.275-0.138-0.413-0.344-0.413h-1.651
	c-0.138,0-0.275,0.069-0.344,0.138c-0.069,0.069-0.138,0.206-0.138,0.413v18.37c0,0.206,0,0.344,0.069,0.482
	c0.069,0.069,0.138,0.206,0.275,0.275c0.206,0.138,0.344,0.344,0.482,0.55c0.138,0.275,0.275,0.55,0.275,0.894v1.032h-5.504V39.63
	c0-0.344,0.069-0.688,0.275-0.894c0.206-0.275,0.344-0.413,0.55-0.55c0.069-0.069,0.138-0.206,0.206-0.275
	c0.069-0.069,0.069-0.275,0.069-0.482V18.921c0-0.138-0.069-0.275-0.138-0.344c-0.138-0.069-0.206-0.138-0.344-0.138h-1.445
	c-0.069,0-0.206,0-0.344,0.069c-0.138,0.069-0.206,0.206-0.206,0.344c0,0.344-0.069,0.688-0.275,0.826
	c-0.206,0.206-0.55,0.275-1.101,0.275h-1.514v-1.926H40.112z M35.571,10.183c0-0.069,0-0.138,0.069-0.138s0.069-0.069,0.138-0.069
	c0.069,0,0.138,0,0.138,0.069s0.069,0.069,0.069,0.138v1.101v0.069c0,0,0,0,0.069,0h0.619h0.069c0,0,0,0,0-0.069v-1.101
	c0-0.069,0-0.138,0.069-0.138c0.069-0.069,0.069-0.069,0.138-0.069s0.138,0,0.138,0.069c0.069,0.069,0.069,0.069,0.069,0.138v2.821
	c0,0.069,0,0.138-0.069,0.138c-0.069,0.069-0.069,0.069-0.138,0.069c-0.069,0-0.138,0-0.138-0.069
	c-0.069-0.069-0.069-0.069-0.069-0.138v-1.101v-0.069c0,0,0,0-0.069,0h-0.619h-0.069c0,0,0,0,0,0.069v1.101
	c0,0.069,0,0.138-0.069,0.138c-0.069,0.069-0.069,0.069-0.138,0.069s-0.138,0-0.138-0.069c-0.069-0.069-0.069-0.069-0.069-0.138
	V10.183z M30.755,10.733c0-0.138,0.069-0.275,0.138-0.413c0.069-0.138,0.206-0.206,0.344-0.275c0.069-0.069,0.206-0.069,0.275-0.069
	c0.138,0,0.275,0.069,0.413,0.138c0.138,0.069,0.206,0.206,0.275,0.344c0.069,0.069,0.069,0.206,0.069,0.275s0,0.138-0.069,0.138
	c-0.069,0-0.069,0.069-0.138,0.069c-0.069,0-0.138,0-0.138-0.069s-0.069-0.069-0.069-0.138c0-0.069,0-0.138-0.069-0.206
	s-0.069-0.069-0.138-0.138c-0.069,0-0.069,0-0.138,0s-0.138,0-0.206,0.069s-0.069,0.069-0.138,0.138c0,0.069,0,0.069,0,0.138v1.651
	c0,0.069,0,0.138,0.069,0.206c0.069,0.069,0.069,0.069,0.138,0.138c0.069,0,0.069,0,0.138,0c0.069,0,0.138,0,0.206-0.069
	c0.069,0,0.069-0.069,0.138-0.138c0-0.069,0-0.069,0-0.138c0-0.069,0-0.138,0.069-0.138c0.069,0,0.069-0.069,0.138-0.069
	c0.069,0,0.138,0,0.138,0.069s0.138,0.138,0.138,0.206s0,0.138-0.069,0.206C32.2,12.728,32.2,12.797,32.2,12.866
	c-0.069,0.138-0.206,0.206-0.344,0.275c-0.069,0.069-0.206,0.069-0.275,0.069c-0.138,0-0.275-0.069-0.413-0.138
	c-0.138-0.069-0.206-0.206-0.275-0.344c-0.069-0.069-0.069-0.206-0.069-0.275v-1.72H30.755z M25.939,10.527
	c0-0.069,0.069-0.138,0.069-0.206c0.069-0.138,0.206-0.206,0.344-0.275c0.069-0.069,0.206-0.069,0.275-0.069
	c0.138,0,0.275,0.069,0.413,0.138c0.138,0.069,0.206,0.206,0.275,0.344c0.069,0.069,0.069,0.206,0.069,0.275s0,0.138-0.069,0.138
	s-0.069,0.069-0.138,0.069s-0.138,0-0.138-0.069c-0.069-0.069-0.069-0.069-0.069-0.138c0-0.069,0-0.138-0.069-0.206
	s-0.069-0.069-0.138-0.138c-0.069,0-0.069,0-0.138,0c-0.069,0-0.138,0-0.206,0.069c-0.069,0.069-0.069,0.069-0.138,0.138
	c0,0.069,0,0.069,0,0.138s0,0.069,0,0.138c0,0.069,0.069,0.138,0.069,0.138c0.069,0.069,0.069,0.138,0.138,0.138
	s0.138,0.138,0.206,0.206c0.069,0,0.069,0.069,0.138,0.138c0.069,0.069,0.069,0.069,0.138,0.138
	c0.069,0.069,0.069,0.069,0.138,0.138c0,0.069,0.069,0.069,0.069,0.138c0.069,0.069,0.069,0.138,0.069,0.206
	c0.069,0.138,0.069,0.206,0.069,0.275c0,0.138-0.069,0.275-0.138,0.413c-0.069,0.138-0.206,0.206-0.344,0.275
	c-0.069,0.069-0.206,0.069-0.275,0.069c-0.138,0-0.275-0.069-0.413-0.138c-0.138-0.069-0.206-0.206-0.275-0.344
	c-0.069-0.069-0.069-0.206-0.069-0.275s0-0.138,0.069-0.138c0.069-0.069,0.069-0.069,0.138-0.069s0.138,0,0.138,0.069
	c0.069,0.069,0.069,0.069,0.069,0.138s0,0.138,0.069,0.206c0.069,0.069,0.069,0.069,0.138,0.138c0.069,0,0.069,0,0.138,0
	c0.069,0,0.138,0,0.206-0.069c0.069-0.069,0.069-0.069,0.138-0.138c0-0.069,0-0.069,0-0.138c0-0.069,0-0.069,0-0.138
	s-0.069-0.069-0.069-0.138c-0.069-0.069-0.069-0.138-0.138-0.138c-0.069,0-0.138-0.138-0.206-0.206
	c-0.069-0.069-0.138-0.069-0.138-0.138c-0.069-0.069-0.138-0.138-0.138-0.138c-0.138-0.138-0.206-0.275-0.275-0.344
	c-0.069-0.138-0.069-0.206-0.069-0.275C25.939,10.664,25.939,10.596,25.939,10.527z M25.595,15.756h3.715
	c0.275,0,0.482,0.069,0.619,0.206c0.138,0.138,0.206,0.275,0.275,0.482c0,0.069,0.138,0.413,0.344,1.101
	c0.206,0.688,0.482,1.582,0.826,2.614c0.344,1.032,0.688,2.202,1.101,3.44c0.413,1.238,0.757,2.477,1.101,3.578
	c0.344,1.17,0.619,2.133,0.894,3.027c0.275,0.894,0.413,1.445,0.55,1.72c0,0.069,0.069,0.069,0.069,0.138c0,0.069,0.069,0,0.069,0
	V18.921c0-0.206,0-0.344-0.069-0.482c-0.069-0.069-0.138-0.206-0.206-0.275c-0.206-0.138-0.344-0.344-0.55-0.55
	c-0.206-0.275-0.275-0.55-0.275-0.894v-0.963h5.16v0.963c0,0.344-0.069,0.688-0.275,0.894c-0.206,0.275-0.344,0.413-0.55,0.55
	c-0.069,0.069-0.138,0.206-0.206,0.275c-0.069,0.069-0.069,0.206-0.138,0.413V39.63c0,0.206-0.069,0.413-0.206,0.619
	c-0.138,0.206-0.344,0.275-0.619,0.275h-1.926c-0.275,0-0.482-0.138-0.619-0.344c-0.138-0.275-0.206-0.55-0.344-0.894
	c-0.069-0.138-0.206-0.55-0.413-1.307c-0.275-0.757-0.55-1.651-0.894-2.752c-0.344-1.101-0.688-2.202-1.101-3.44
	c-0.413-1.238-0.757-2.339-1.101-3.371c-0.344-1.032-0.619-1.926-0.826-2.614c-0.206-0.688-0.344-1.032-0.344-1.101
	s-0.069-0.069-0.069-0.069s0,0,0,0.138V37.36c0,0.275,0,0.413,0.069,0.482c0.069,0.069,0.138,0.138,0.275,0.206
	c0.206,0.138,0.344,0.344,0.482,0.55c0.138,0.275,0.275,0.55,0.275,0.894v1.101h-5.16V39.63c0-0.344,0.069-0.688,0.275-0.894
	c0.206-0.275,0.344-0.413,0.55-0.55c0.069-0.069,0.138-0.138,0.206-0.206s0.069-0.275,0.069-0.482V18.714
	c-0.206-0.069-0.413-0.206-0.55-0.344s-0.275-0.344-0.413-0.55c-0.138-0.206-0.138-0.55-0.138-0.894v-1.17H25.595z M71.761,35.158
	c0,0,4.61-0.413,0.688-9.22C72.449,25.939,66.876,33.576,71.761,35.158z M69.559,40.318c0,0,4.266-2.064-2.27-8.944
	C67.289,31.443,64.468,40.594,69.559,40.318z M65.156,37.91c0,0-2.821,9.22,2.27,8.944C67.427,46.855,71.692,44.79,65.156,37.91z
	 M64.743,52.772c0,0,4.335-1.789-1.72-9.082C62.954,43.758,59.652,52.703,64.743,52.772z M60.202,48.712c0,0-4.403,8.463,0.619,9.22
	C60.89,57.932,65.431,56.762,60.202,48.712z M56.143,52.29c0,0-5.435,7.775-0.482,9.22C55.661,61.578,60.271,61.028,56.143,52.29z
	 M50.226,65.018c0,0,4.679,0,1.445-9.151C51.671,55.937,45.547,63.023,50.226,65.018z M43.483,66.257c0,0,4.472,1.376,3.715-8.325
	C47.199,57.932,39.424,62.954,43.483,66.257z M72.036,41.213c4.747,1.995,4.816-7.706,4.816-7.706
	C68.665,37.841,72.036,41.213,72.036,41.213z M69.628,47.955c4.335,2.821,6.055-6.674,6.055-6.674
	C66.876,43.965,69.628,47.955,69.628,47.955z M65.775,53.941c3.509,3.922,7.362-4.816,7.362-4.816
	C64.055,49.331,65.775,53.941,65.775,53.941z M61.716,59.583c2.821,4.472,8.05-3.371,8.05-3.371
	C60.753,54.698,61.716,59.583,61.716,59.583z M55.73,64.262c1.926,5.023,8.532-1.514,8.532-1.514
	C55.73,59.308,55.73,64.262,55.73,64.262z M58.689,67.839c-7.637-5.435-8.669-0.619-8.669-0.619
	C50.776,72.587,58.689,67.839,58.689,67.839z M50.845,71.211c-5.779-7.568-8.119-3.303-8.119-3.303
	C42.038,73.275,50.845,71.211,50.845,71.211z"/>
</svg>
