<svg xmlns="http://www.w3.org/2000/svg" width="506" height="114" viewBox="0 0 506 114">
  <defs>
    <style>
      .cls-1 {
        fill: #0d2e65;
        fill-rule: evenodd;
      }
    </style>
  </defs>
  <path id="Школа_современных_технологий" data-name="Школа современных технологий" class="cls-1" d="M44.022,46.547V-0.12h-8.4V38.814H27.689V-0.12h-8.4V38.814H11.356V-0.12h-8.4V46.547H44.022Zm21.533,0h8.933L67.755,31.214l-3.2-2.6,2.933-2.6,6.067-12.8H65.022l-5.6,13.267-1.6.933v-14.2H49.889V46.547h7.933v-13.8h1.8Zm22.8,0.867q6.266,0,9.733-4.3t3.467-13.233q0-8.733-3.267-13.133t-9.933-4.4a11.685,11.685,0,0,0-9.667,4.333q-3.467,4.334-3.467,13.2,0,17.534,13.133,17.533h0ZM84.723,21.78a4,4,0,0,1,3.633-2.367,3.943,3.943,0,0,1,3.867,2.667,20.8,20.8,0,0,1,1.133,7.8q0,5.734-1.233,8.1a4.007,4.007,0,0,1-3.767,2.367,3.9,3.9,0,0,1-3.8-2.733,20.863,20.863,0,0,1-1.133-7.733Q83.423,24.147,84.723,21.78Zm36.566,24.767h7.933V13.214H109.489q-0.2,9.067-.634,14.4a47.766,47.766,0,0,1-1.166,8.033q-0.735,2.7-1.834,3.3a3.3,3.3,0,0,1-2.7.067l-0.933,6.933a6.156,6.156,0,0,0,2.067.767,15.26,15.26,0,0,0,2.866.233,5.583,5.583,0,0,0,4.434-1.967,14.287,14.287,0,0,0,2.7-5.467,47.274,47.274,0,0,0,1.466-8.367q0.467-4.866.734-10.667h4.8V46.547Zm15.733-25.4a15.3,15.3,0,0,1,3.8-1.333,19.367,19.367,0,0,1,4.133-.467q2.733,0,3.567,1.733t0.5,5.6q-7.267-.4-11.533,2.133t-4.267,8.533a10.4,10.4,0,0,0,2.267,7.033,7.747,7.747,0,0,0,6.2,2.633,8.713,8.713,0,0,0,4.866-1.267,8.962,8.962,0,0,0,3-3.2h0.267l1.267,4.067h6.466a22.034,22.034,0,0,1-.9-5.1q-0.166-2.7-.1-5.6t0.234-5.933q0.165-3.033.166-6.167,0-5.4-2.233-8.333t-7.9-2.933a28.748,28.748,0,0,0-6.8.733,18.08,18.08,0,0,0-5,1.933Zm5.233,18a5.013,5.013,0,0,1-.833-3.133,3.9,3.9,0,0,1,.633-2.3,3.981,3.981,0,0,1,1.7-1.367,8.079,8.079,0,0,1,2.467-.6,13.086,13.086,0,0,1,2.933.067v5.533a5.938,5.938,0,0,1-1.666,1.967,4.579,4.579,0,0,1-2.934.9A2.756,2.756,0,0,1,142.255,39.147Zm51.9-.533a10.417,10.417,0,0,1-2.167,1.1,8.152,8.152,0,0,1-2.833.433,4.779,4.779,0,0,1-4.567-2.867,16.551,16.551,0,0,1-1.433-7.4q0-5.4,1.4-7.833a4.547,4.547,0,0,1,4.2-2.433,10.1,10.1,0,0,1,2.633.3,12.546,12.546,0,0,1,2.3.9l1.867-6.6a16.155,16.155,0,0,0-3.367-1.333,18.6,18.6,0,0,0-4.9-.533q-6.066,0-9.2,4.4T174.954,29.88a37.792,37.792,0,0,0,.633,7.233,15.863,15.863,0,0,0,2.1,5.533,10.055,10.055,0,0,0,3.767,3.533,11.951,11.951,0,0,0,5.7,1.233,16.952,16.952,0,0,0,4.667-.667,11.27,11.27,0,0,0,4-2Zm16.4,8.8q6.267,0,9.734-4.3t3.466-13.233q0-8.733-3.266-13.133t-9.934-4.4a11.684,11.684,0,0,0-9.666,4.333q-3.468,4.334-3.467,13.2,0,17.534,13.133,17.533h0ZM206.921,21.78a4,4,0,0,1,3.633-2.367,3.943,3.943,0,0,1,3.867,2.667,20.809,20.809,0,0,1,1.133,7.8q0,5.734-1.233,8.1a4.007,4.007,0,0,1-3.767,2.367,3.9,3.9,0,0,1-3.8-2.733,20.87,20.87,0,0,1-1.133-7.733Q205.621,24.147,206.921,21.78Zm21.366,24.7q1.866,0.266,4.634.4t5.1,0.133q7.2,0,10.4-2.467t3.2-7.467q0-6.466-5.667-8V28.814a6.812,6.812,0,0,0,3.467-3.167,9.723,9.723,0,0,0,1.133-4.567q0-4.2-2.6-6.267t-8.867-2.067q-3.133,0-6.033.167t-4.767.367v33.2Zm7.734-14.4h3.266a4.476,4.476,0,0,1,3.4,1.082,4.037,4.037,0,0,1,1,2.853,4,4,0,0,1-1.166,3.181,5.679,5.679,0,0,1-3.767,1.017q-0.867,0-1.467-.032a9.132,9.132,0,0,1-1.266-.165V32.08Zm0-5.267V19.678q0.533-.066,1.2-0.1t1.8-.033a4.217,4.217,0,0,1,3.1.884,3.952,3.952,0,0,1,.833,2.781,3.447,3.447,0,0,1-1.033,2.62,3.673,3.673,0,0,1-2.634.981h-3.266ZM256.154,59.88h7.933V46.347a7.43,7.43,0,0,0,2.134.867,12.129,12.129,0,0,0,2.733.267,10.475,10.475,0,0,0,9.267-4.767q3.2-4.766,3.2-13.7t-2.567-12.767a8.586,8.586,0,0,0-7.633-3.833,9.249,9.249,0,0,0-4.7,1.1,10.351,10.351,0,0,0-3.434,3.5h-0.2l-0.8-3.8h-5.933V59.88Zm7.933-36.467q1.2-3.933,4.534-3.933a3.64,3.64,0,0,1,3.533,2.3,17.588,17.588,0,0,1,1.067,7.033q0,6.334-1.4,8.967a4.407,4.407,0,0,1-4.067,2.633,5.9,5.9,0,0,1-2.167-.333,4.421,4.421,0,0,1-1.5-1V23.414ZM306.02,38.547a10.345,10.345,0,0,1-2.7,1.4,10.961,10.961,0,0,1-3.9.667q-3.534,0-5.133-2.2a11.3,11.3,0,0,1-1.734-6.333h16.2q0.333-1.933.5-3.6t0.167-3.133a17.637,17.637,0,0,0-.967-6.3,10.868,10.868,0,0,0-2.533-4,9.068,9.068,0,0,0-3.567-2.133,13.62,13.62,0,0,0-4.133-.633q-6.335,0-9.9,4.3t-3.567,13.3a32.006,32.006,0,0,0,.767,7.367,15.693,15.693,0,0,0,2.367,5.5,10.493,10.493,0,0,0,4.1,3.467,13.669,13.669,0,0,0,5.966,1.2,19.266,19.266,0,0,0,6-.933,12.791,12.791,0,0,0,4.534-2.4Zm-4.8-17.5a11.716,11.716,0,0,1,.8,5.767h-9.2a12.056,12.056,0,0,1,1.467-5.7,4.181,4.181,0,0,1,3.8-2.033A3.3,3.3,0,0,1,301.22,21.047Zm37,25.5h7.533V13.214h-8.267l-5.6,12.133-1.4,4.6H330.22l-1.334-4.467L322.82,13.214h-8.334V46.547h7.067V31.214l-0.867-6.867h0.4l2.067,6.2,5.333,10h3l4.867-10,2-6.2h0.333l-0.466,6.867V46.547Zm33.332-8a10.345,10.345,0,0,1-2.7,1.4,10.961,10.961,0,0,1-3.9.667q-3.534,0-5.133-2.2a11.292,11.292,0,0,1-1.733-6.333h16.2q0.333-1.933.5-3.6t0.166-3.133a17.661,17.661,0,0,0-.966-6.3,10.869,10.869,0,0,0-2.534-4,9.064,9.064,0,0,0-3.566-2.133,13.631,13.631,0,0,0-4.134-.633q-6.334,0-9.9,4.3t-3.566,13.3a32.065,32.065,0,0,0,.766,7.367,15.712,15.712,0,0,0,2.367,5.5,10.5,10.5,0,0,0,4.1,3.467,13.674,13.674,0,0,0,5.967,1.2,19.275,19.275,0,0,0,6-.933,12.785,12.785,0,0,0,4.533-2.4Zm-4.8-17.5a11.7,11.7,0,0,1,.8,5.767h-9.2a12.068,12.068,0,0,1,1.467-5.7,4.182,4.182,0,0,1,3.8-2.033A3.3,3.3,0,0,1,366.752,21.047Zm29.2,25.5h7.933V13.214h-7.933v12.8h-8v-12.8h-7.933V46.547h7.933V33.28h8V46.547Zm29.6,0h7.933V13.214h-7.933v12.8h-8v-12.8h-7.933V46.547h7.933V33.28h8V46.547Zm21.6-15.533a10.621,10.621,0,0,1,2.933-.4,3.555,3.555,0,0,1,3,1.133,5.694,5.694,0,0,1,.867,3.467,5.768,5.768,0,0,1-.9,3.633,3.714,3.714,0,0,1-3.033,1.1,10.381,10.381,0,0,1-2.867-.4V31.014Zm0-17.8h-7.933V46.547q1.865,0.2,4.3.333t5.633,0.133a20.979,20.979,0,0,0,6.133-.767,9.739,9.739,0,0,0,4-2.267,8.524,8.524,0,0,0,2.2-3.767,18.739,18.739,0,0,0,.667-5.267,16.082,16.082,0,0,0-.5-4.1,8.684,8.684,0,0,0-1.633-3.3,7.4,7.4,0,0,0-3-2.167,12.156,12.156,0,0,0-4.6-.767c-0.757,0-1.6.033-2.534,0.1a21.983,21.983,0,0,0-2.733.367V13.214Zm17.867,33.333h7.933V13.214h-7.933V46.547Zm11,0h8.533l4.067-8.667,1.533-4.733,1.467,4.733,4.066,8.667h9l-8.533-17.333,8-16h-8.6l-3.467,7.867-1.4,4.267-1.266-4.267-3.4-7.867h-9.334l7.934,16.267ZM22.822,79.88H0.022v7.267h7.6v26.067h7.933V87.147h7.267V79.88Zm22.667,25.334a10.369,10.369,0,0,1-2.7,1.4,10.98,10.98,0,0,1-3.9.666q-3.534,0-5.133-2.2a11.3,11.3,0,0,1-1.733-6.333h16.2q0.333-1.933.5-3.6t0.167-3.133a17.645,17.645,0,0,0-.967-6.3,10.87,10.87,0,0,0-2.533-4,9.07,9.07,0,0,0-3.567-2.133,13.621,13.621,0,0,0-4.133-.633q-6.334,0-9.9,4.3t-3.567,13.3a32.044,32.044,0,0,0,.767,7.367,15.714,15.714,0,0,0,2.367,5.5,10.5,10.5,0,0,0,4.1,3.466,13.673,13.673,0,0,0,5.967,1.2,19.268,19.268,0,0,0,6-.933,12.79,12.79,0,0,0,4.533-2.4Zm-4.8-17.5a11.717,11.717,0,0,1,.8,5.767h-9.2a12.063,12.063,0,0,1,1.467-5.7,4.182,4.182,0,0,1,3.8-2.033A3.3,3.3,0,0,1,40.689,87.714Zm10.133,25.5h8.533l4.067-8.667,1.533-4.733,1.467,4.733,4.067,8.667h9L70.956,95.88l8-16h-8.6l-3.467,7.867-1.4,4.267-1.267-4.267-3.4-7.867H51.489l7.933,16.267Zm47.8,0h7.934V79.88H98.622v12.8h-8V79.88H82.689v33.334h7.933V99.947h8v13.267Zm25.6,0.866q6.265,0,9.734-4.3t3.466-13.233q0-8.733-3.266-13.133t-9.934-4.4a11.683,11.683,0,0,0-9.666,4.333q-3.468,4.334-3.467,13.2,0,17.534,13.133,17.533h0Zm-3.633-25.633a4,4,0,0,1,3.633-2.367,3.943,3.943,0,0,1,3.867,2.667,20.809,20.809,0,0,1,1.133,7.8q0,5.735-1.233,8.1a4.008,4.008,0,0,1-3.767,2.367,3.9,3.9,0,0,1-3.8-2.734,20.87,20.87,0,0,1-1.133-7.733Q119.288,90.814,120.588,88.447Zm36.566,24.767h7.933V79.88H145.354q-0.2,9.067-.633,14.4a47.752,47.752,0,0,1-1.167,8.034q-0.735,2.7-1.833,3.3a3.3,3.3,0,0,1-2.7.066l-0.934,6.934a6.164,6.164,0,0,0,2.067.766,15.276,15.276,0,0,0,2.867.234,5.581,5.581,0,0,0,4.433-1.967,14.288,14.288,0,0,0,2.7-5.467,47.265,47.265,0,0,0,1.467-8.367q0.465-4.866.733-10.667h4.8v26.067Zm25.6,0.866q6.266,0,9.733-4.3t3.467-13.233q0-8.733-3.267-13.133t-9.933-4.4a11.687,11.687,0,0,0-9.667,4.333q-3.466,4.334-3.466,13.2,0,17.534,13.133,17.533h0Zm-3.633-25.633a4,4,0,0,1,3.633-2.367,3.944,3.944,0,0,1,3.867,2.667,20.809,20.809,0,0,1,1.133,7.8q0,5.735-1.233,8.1a4.008,4.008,0,0,1-3.767,2.367,3.9,3.9,0,0,1-3.8-2.734,20.87,20.87,0,0,1-1.133-7.733Q177.821,90.814,179.121,88.447Zm39.432-8.567H200.487v33.334h7.933V87.147h10.133V79.88Zm18.866,33.334h7.934V79.88h-5.334l-9,14.8-2.4,5.534h-0.2l0.6-5.2V79.88h-7.933v33.334h5.333l8.934-14.267,2.466-5.667h0.2l-0.6,5.4v14.534Zm30,0h7.934V79.88h-5.334l-9,14.8-2.4,5.534h-0.2l0.6-5.2V79.88h-7.933v33.334h5.333l8.934-14.267,2.466-5.667h0.2l-0.6,5.4v14.534ZM253.886,67.747a11.183,11.183,0,0,0,1.167,4.133,8.384,8.384,0,0,0,2.233,2.7,8.617,8.617,0,0,0,3,1.5,12.528,12.528,0,0,0,3.4.467,9.7,9.7,0,0,0,6.233-2.1q2.632-2.1,3.367-6.633l-6-1.467a7.9,7.9,0,0,1-1.167,3.633,2.758,2.758,0,0,1-4.433-.033,7.044,7.044,0,0,1-1.067-3.667Z"/>
</svg>
