<?xml version="1.0" encoding="UTF-8" ?>
<!DOCTYPE svg PUBLIC "-//W3C//DTD SVG 1.1//EN" "http://www.w3.org/Graphics/SVG/1.1/DTD/svg11.dtd">
<svg id="fb" width="100%" height="100%" viewBox="0 0 200 369" version="1.1" xmlns="http://www.w3.org/2000/svg">
    <g id="#000000ff">
        <path fill="#000000" opacity="1.00"
              d=" M 137.60 0.00 L 200.00 0.00 L 200.00 70.60 C 181.01 70.64 162.03 70.59 143.04 70.62 C 139.79 70.48 136.95 72.49 134.75 74.69 C 130.07 79.51 127.71 86.30 127.79 92.98 C 127.83 104.59 127.80 116.21 127.81 127.82 C 151.31 127.81 174.82 127.83 198.33 127.81 C 198.37 151.36 198.32 174.91 198.35 198.45 C 174.88 198.41 151.40 198.53 127.93 198.39 C 127.64 255.26 127.89 312.13 127.81 369.00 L 57.40 369.00 C 57.37 312.15 57.35 255.30 57.41 198.45 C 38.27 198.45 19.14 198.46 0.00 198.45 L 0.00 127.82 C 19.13 127.84 38.25 127.77 57.38 127.86 C 57.40 115.25 57.36 102.65 57.39 90.04 C 57.66 62.74 69.92 35.41 91.36 18.22 C 104.40 7.54 120.80 1.24 137.60 0.00 Z"/>
    </g>
</svg>
