<?xml version="1.0" encoding="UTF-8" ?>
<!DOCTYPE svg PUBLIC "-//W3C//DTD SVG 1.1//EN" "http://www.w3.org/Graphics/SVG/1.1/DTD/svg11.dtd">
<svg id="fb_small" width="100%" height="100%" viewBox="0 0 12 22" version="1.1" xmlns="http://www.w3.org/2000/svg">
<g id="#000000ff">
<path fill="#000000" opacity="1.00" d=" M 7.28 0.00 L 12.00 0.00 L 12.00 4.21 C 10.63 4.24 9.25 4.27 7.88 4.29 C 7.80 5.44 7.71 6.59 7.61 7.74 C 9.07 7.71 10.54 7.67 12.00 7.64 L 12.00 11.76 C 10.56 11.78 9.12 11.81 7.68 11.84 C 7.67 15.23 7.66 18.61 7.66 22.00 L 3.48 22.00 C 3.47 18.61 3.45 15.21 3.46 11.82 C 2.59 11.82 0.86 11.81 0.00 11.81 L 0.00 7.65 C 0.83 7.68 2.48 7.75 3.31 7.78 C 3.15 4.65 4.09 1.27 7.28 0.00 Z" />
</g>
</svg>
