<?xml version="1.0" encoding="UTF-8" ?>
<!DOCTYPE svg PUBLIC "-//W3C//DTD SVG 1.1//EN" "http://www.w3.org/Graphics/SVG/1.1/DTD/svg11.dtd">
<svg id="gallery" width="100%" height="100%" viewBox="0 0 200 200" version="1.1" xmlns="http://www.w3.org/2000/svg">
<g id="#ffffffff">
<path fill="#ffffff" opacity="1.00" d=" M 0.00 0.00 L 200.00 0.00 L 200.00 200.00 L 0.00 200.00 L 0.00 58.06 C 1.62 63.91 1.58 70.07 3.32 75.89 C 4.04 78.54 4.03 81.33 4.79 83.98 C 6.68 90.37 6.45 97.17 8.46 103.54 C 9.58 110.74 11.45 117.78 12.15 125.06 C 15.88 141.39 17.93 158.04 21.75 174.34 C 22.18 175.59 23.52 176.17 24.40 177.05 C 33.57 177.99 42.45 174.72 51.44 173.55 C 56.88 171.93 62.56 171.58 68.13 170.62 C 73.43 169.08 78.96 168.70 84.28 167.21 C 91.82 166.49 99.14 164.59 106.60 163.37 C 113.75 161.73 121.20 160.05 128.52 161.60 C 132.76 161.97 136.98 162.43 141.11 163.52 C 150.41 164.52 159.56 166.58 168.92 167.16 C 172.76 167.29 176.96 170.11 180.54 167.65 C 181.88 166.68 183.63 165.67 183.80 163.84 C 184.40 158.92 186.00 154.17 186.12 149.19 C 188.97 147.94 192.61 146.40 192.63 142.74 C 192.20 136.44 191.03 130.19 189.96 123.96 C 190.95 117.20 191.58 110.38 192.41 103.59 C 193.41 99.63 194.00 95.60 194.27 91.53 C 196.08 84.11 196.42 76.45 197.45 68.91 C 198.55 64.01 199.44 59.03 199.38 53.99 C 199.28 51.98 197.59 50.70 196.47 49.22 C 189.68 47.09 182.56 46.88 175.57 45.86 C 173.71 38.73 172.96 31.35 170.87 24.26 C 167.64 21.24 162.97 21.61 159.05 22.89 C 155.79 23.98 152.29 23.92 148.99 24.85 C 142.83 26.66 136.26 26.42 130.12 28.33 C 122.26 29.70 114.49 31.47 106.56 32.40 C 99.94 34.66 92.73 34.58 86.03 32.72 C 77.99 31.33 69.75 31.27 61.81 29.26 C 55.40 29.26 49.35 26.46 42.91 26.95 C 40.12 26.84 37.42 29.01 36.89 31.74 C 35.79 36.37 36.08 41.20 34.88 45.82 C 27.12 46.98 19.46 48.58 11.79 50.12 C 8.23 51.52 2.91 50.16 1.11 54.39 C 0.75 55.39 0.38 56.38 0.00 57.36 L 0.00 0.00 Z" />
<path fill="#ffffff" opacity="1.00" d=" M 150.12 38.75 C 153.28 37.98 156.39 36.85 159.70 36.86 C 160.38 39.18 160.88 41.54 161.13 43.94 C 154.10 41.98 146.80 41.96 139.69 40.49 C 143.13 39.72 146.59 39.05 150.12 38.75 Z" />
<path fill="#ffffff" opacity="1.00" d=" M 49.05 41.53 C 56.20 41.70 62.99 44.08 70.12 44.31 C 79.19 46.82 88.78 46.16 97.85 48.65 C 101.75 49.05 105.70 49.16 109.47 50.35 C 117.27 51.63 125.27 51.61 132.94 53.72 C 137.19 53.91 141.38 54.46 145.49 55.62 C 150.36 56.01 155.19 56.86 160.08 57.14 C 163.76 57.58 167.28 59.08 171.04 59.00 C 175.75 59.02 180.14 61.21 184.87 61.06 C 183.86 64.69 184.22 68.51 183.37 72.16 C 181.13 80.32 181.85 88.96 179.56 97.11 C 178.86 99.95 179.19 102.91 178.59 105.76 C 176.12 114.62 176.81 124.00 174.35 132.86 C 174.19 140.05 171.60 146.87 171.60 154.08 C 167.68 153.78 163.98 152.19 160.04 152.05 C 156.63 151.96 153.31 151.05 149.90 150.97 C 145.84 150.89 142.04 149.09 137.98 149.04 C 133.18 149.11 128.72 146.92 123.93 146.97 C 118.10 146.07 112.15 146.09 106.45 144.39 C 101.94 144.00 97.45 143.52 93.06 142.32 C 87.98 141.91 82.96 141.07 77.87 140.74 C 73.60 139.63 69.27 138.90 64.85 138.73 C 55.34 136.21 45.35 136.77 35.86 134.15 C 37.06 128.83 36.74 123.29 38.30 118.04 C 39.27 114.59 38.77 110.93 39.72 107.48 C 41.83 99.45 41.19 90.95 43.44 82.93 C 44.23 79.52 43.81 75.93 44.81 72.55 C 46.21 67.86 45.95 62.91 46.89 58.13 C 46.75 52.47 49.44 47.20 49.05 41.53 M 68.55 69.56 C 65.87 72.94 66.53 77.56 67.12 81.52 C 68.75 84.69 71.30 87.11 74.37 88.88 C 78.02 89.98 81.78 89.77 85.43 88.82 C 86.96 87.49 88.79 86.51 90.16 84.99 C 92.93 81.03 93.28 75.90 91.90 71.35 C 89.22 64.67 81.40 62.32 74.84 64.10 C 72.59 65.72 69.91 67.01 68.55 69.56 M 112.30 97.36 C 110.83 100.74 106.96 102.14 105.71 105.64 C 102.20 108.37 99.95 112.37 96.65 115.36 C 88.67 111.75 79.74 110.64 71.02 110.98 C 65.04 110.76 59.14 112.62 54.38 116.25 C 51.17 118.07 49.61 121.76 47.20 124.46 C 47.04 125.07 46.71 126.30 46.55 126.91 C 49.45 126.93 52.31 127.43 55.11 128.21 C 58.35 129.17 61.78 128.79 65.07 129.46 C 73.58 131.87 82.62 131.12 91.14 133.48 C 94.02 134.20 97.03 133.83 99.92 134.49 C 106.84 136.35 114.05 136.44 121.12 137.40 C 124.07 137.96 126.95 138.97 129.99 138.98 C 134.39 138.93 138.50 140.86 142.87 140.97 C 149.99 141.68 157.08 142.44 164.06 144.04 C 161.32 136.73 161.85 128.73 159.42 121.35 C 158.52 113.74 156.00 106.39 155.84 98.65 C 151.14 102.88 147.13 107.80 142.58 112.17 C 142.16 110.96 141.74 109.76 141.33 108.55 C 140.81 107.45 140.14 106.44 139.42 105.48 C 138.34 102.71 136.58 100.26 135.75 97.38 C 134.24 95.64 133.58 93.38 132.26 91.52 C 131.72 90.14 131.23 88.74 130.78 87.34 C 130.40 86.93 129.65 86.11 129.27 85.70 C 128.79 83.90 127.78 82.34 126.63 80.91 C 122.23 86.71 117.18 91.99 112.30 97.36 Z" />
<path fill="#ffffff" opacity="1.00" d=" M 15.30 63.48 C 20.80 61.64 26.66 61.56 32.32 60.52 C 31.53 68.03 31.07 75.58 29.22 82.92 C 29.33 88.80 26.93 94.31 26.89 100.17 C 25.90 105.29 26.17 110.62 24.66 115.63 C 23.47 114.26 24.38 110.82 23.51 108.85 C 21.45 103.04 21.70 96.76 20.21 90.82 C 18.72 87.07 19.24 82.92 17.75 79.18 C 16.64 74.00 16.23 68.69 15.30 63.48 Z" />
<path fill="#ffffff" opacity="1.00" d=" M 30.84 147.20 C 35.18 148.41 39.61 149.07 44.10 149.27 C 49.58 150.90 55.29 150.97 60.89 151.86 C 66.78 151.96 72.36 154.09 78.23 154.43 C 74.04 156.12 69.45 156.00 65.08 156.89 C 61.26 156.98 57.78 158.86 53.97 159.01 C 51.16 159.07 48.59 160.30 45.86 160.81 C 41.68 161.18 37.57 162.07 33.39 162.47 C 31.69 157.57 31.49 152.30 30.84 147.20 Z" />
</g>
<g id="#000000ff">
<path fill="#000000" opacity="1.00" d=" M 159.05 22.89 C 162.97 21.61 167.64 21.24 170.87 24.26 C 172.96 31.35 173.71 38.73 175.57 45.86 C 182.56 46.88 189.68 47.09 196.47 49.22 C 197.59 50.70 199.28 51.98 199.38 53.99 C 199.44 59.03 198.55 64.01 197.45 68.91 C 196.42 76.45 196.08 84.11 194.27 91.53 C 194.00 95.60 193.41 99.63 192.41 103.59 C 191.58 110.38 190.95 117.20 189.96 123.96 C 191.03 130.19 192.20 136.44 192.63 142.74 C 192.61 146.40 188.97 147.94 186.12 149.19 C 186.00 154.17 184.40 158.92 183.80 163.84 C 183.63 165.67 181.88 166.68 180.54 167.65 C 176.96 170.11 172.76 167.29 168.92 167.16 C 159.56 166.58 150.41 164.52 141.11 163.52 C 136.98 162.43 132.76 161.97 128.52 161.60 C 121.20 160.05 113.75 161.73 106.60 163.37 C 99.14 164.59 91.82 166.49 84.28 167.21 C 78.96 168.70 73.43 169.08 68.13 170.62 C 62.56 171.58 56.88 171.93 51.44 173.55 C 42.45 174.72 33.57 177.99 24.40 177.05 C 23.52 176.17 22.18 175.59 21.75 174.34 C 17.93 158.04 15.88 141.39 12.15 125.06 C 11.45 117.78 9.58 110.74 8.46 103.54 C 6.45 97.17 6.68 90.37 4.79 83.98 C 4.03 81.33 4.04 78.54 3.32 75.89 C 1.58 70.07 1.62 63.91 0.00 58.06 L 0.00 57.36 C 0.38 56.38 0.75 55.39 1.11 54.39 C 2.91 50.16 8.23 51.52 11.79 50.12 C 19.46 48.58 27.12 46.98 34.88 45.82 C 36.08 41.20 35.79 36.37 36.89 31.74 C 37.42 29.01 40.12 26.84 42.91 26.95 C 49.35 26.46 55.40 29.26 61.81 29.26 C 69.75 31.27 77.99 31.33 86.03 32.72 C 92.73 34.58 99.94 34.66 106.56 32.40 C 114.49 31.47 122.26 29.70 130.12 28.33 C 136.26 26.42 142.83 26.66 148.99 24.85 C 152.29 23.92 155.79 23.98 159.05 22.89 M 150.12 38.75 C 146.59 39.05 143.13 39.72 139.69 40.49 C 146.80 41.96 154.10 41.98 161.13 43.94 C 160.88 41.54 160.38 39.18 159.70 36.86 C 156.39 36.85 153.28 37.98 150.12 38.75 M 49.05 41.53 C 49.44 47.20 46.75 52.47 46.89 58.13 C 45.95 62.91 46.21 67.86 44.81 72.55 C 43.81 75.93 44.23 79.52 43.44 82.93 C 41.19 90.95 41.83 99.45 39.72 107.48 C 38.77 110.93 39.27 114.59 38.30 118.04 C 36.74 123.29 37.06 128.83 35.86 134.15 C 45.35 136.77 55.34 136.21 64.85 138.73 C 69.27 138.90 73.60 139.63 77.87 140.74 C 82.96 141.07 87.98 141.91 93.06 142.32 C 97.45 143.52 101.94 144.00 106.45 144.39 C 112.15 146.09 118.10 146.07 123.93 146.97 C 128.72 146.92 133.18 149.11 137.98 149.04 C 142.04 149.09 145.84 150.89 149.90 150.97 C 153.31 151.05 156.63 151.96 160.04 152.05 C 163.98 152.19 167.68 153.78 171.60 154.08 C 171.60 146.87 174.19 140.05 174.35 132.86 C 176.81 124.00 176.12 114.62 178.59 105.76 C 179.19 102.91 178.86 99.95 179.56 97.11 C 181.85 88.96 181.13 80.32 183.37 72.16 C 184.22 68.51 183.86 64.69 184.87 61.06 C 180.14 61.21 175.75 59.02 171.04 59.00 C 167.28 59.08 163.76 57.58 160.08 57.14 C 155.19 56.86 150.36 56.01 145.49 55.62 C 141.38 54.46 137.19 53.91 132.94 53.72 C 125.27 51.61 117.27 51.63 109.47 50.35 C 105.70 49.16 101.75 49.05 97.85 48.65 C 88.78 46.16 79.19 46.82 70.12 44.31 C 62.99 44.08 56.20 41.70 49.05 41.53 M 15.30 63.48 C 16.23 68.69 16.64 74.00 17.75 79.18 C 19.24 82.92 18.72 87.07 20.21 90.82 C 21.70 96.76 21.45 103.04 23.51 108.85 C 24.38 110.82 23.47 114.26 24.66 115.63 C 26.17 110.62 25.90 105.29 26.89 100.17 C 26.93 94.31 29.33 88.80 29.22 82.92 C 31.07 75.58 31.53 68.03 32.32 60.52 C 26.66 61.56 20.80 61.64 15.30 63.48 M 30.84 147.20 C 31.49 152.30 31.69 157.57 33.39 162.47 C 37.57 162.07 41.68 161.18 45.86 160.81 C 48.59 160.30 51.16 159.07 53.97 159.01 C 57.78 158.86 61.26 156.98 65.08 156.89 C 69.45 156.00 74.04 156.12 78.23 154.43 C 72.36 154.09 66.78 151.96 60.89 151.86 C 55.29 150.97 49.58 150.90 44.10 149.27 C 39.61 149.07 35.18 148.41 30.84 147.20 Z" />
<path fill="#000000" opacity="1.00" d=" M 68.55 69.56 C 69.91 67.01 72.59 65.72 74.84 64.10 C 81.40 62.32 89.22 64.67 91.90 71.35 C 93.28 75.90 92.93 81.03 90.16 84.99 C 88.79 86.51 86.96 87.49 85.43 88.82 C 81.78 89.77 78.02 89.98 74.37 88.88 C 71.30 87.11 68.75 84.69 67.12 81.52 C 66.53 77.56 65.87 72.94 68.55 69.56 Z" />
<path fill="#000000" opacity="1.00" d=" M 112.30 97.36 C 117.18 91.99 122.23 86.71 126.63 80.91 C 127.78 82.34 128.79 83.90 129.27 85.70 C 129.65 86.11 130.40 86.93 130.78 87.34 C 131.23 88.74 131.72 90.14 132.26 91.52 C 133.58 93.38 134.24 95.64 135.75 97.38 C 136.58 100.26 138.34 102.71 139.42 105.48 C 140.14 106.44 140.81 107.45 141.33 108.55 C 141.74 109.76 142.16 110.96 142.58 112.17 C 147.13 107.80 151.14 102.88 155.84 98.65 C 156.00 106.39 158.52 113.74 159.42 121.35 C 161.85 128.73 161.32 136.73 164.06 144.04 C 157.08 142.44 149.99 141.68 142.87 140.97 C 138.50 140.86 134.39 138.93 129.99 138.98 C 126.95 138.97 124.07 137.96 121.12 137.40 C 114.05 136.44 106.84 136.35 99.92 134.49 C 97.03 133.83 94.02 134.20 91.14 133.48 C 82.62 131.12 73.58 131.87 65.07 129.46 C 61.78 128.79 58.35 129.17 55.11 128.21 C 52.31 127.43 49.45 126.93 46.55 126.91 C 46.71 126.30 47.04 125.07 47.20 124.46 C 49.61 121.76 51.17 118.07 54.38 116.25 C 59.14 112.62 65.04 110.76 71.02 110.98 C 79.74 110.64 88.67 111.75 96.65 115.36 C 99.95 112.37 102.20 108.37 105.71 105.64 C 106.96 102.14 110.83 100.74 112.30 97.36 Z" />
</g>
</svg>
