<?xml version="1.0" encoding="UTF-8" ?>
<!DOCTYPE svg PUBLIC "-//W3C//DTD SVG 1.1//EN" "http://www.w3.org/Graphics/SVG/1.1/DTD/svg11.dtd">
<svg width="200pt" height="200pt" viewBox="0 0 200 200" version="1.1" xmlns="http://www.w3.org/2000/svg">
<g id="#000000ff">
<path fill="#000000" opacity="1.00" d=" M 106.97 23.67 C 114.42 22.27 122.08 26.73 124.43 33.95 C 124.62 36.98 124.62 40.03 124.41 43.06 C 122.59 49.38 117.85 54.48 112.08 57.48 C 108.48 57.65 104.76 58.22 101.24 57.24 C 95.84 54.78 91.82 49.07 92.31 43.00 C 91.84 34.08 98.54 25.99 106.97 23.67 Z" />
<path fill="#000000" opacity="1.00" d=" M 79.92 90.92 C 88.23 83.57 97.53 76.17 108.88 74.66 C 113.57 73.93 119.11 75.52 121.34 80.04 C 122.27 84.03 121.61 88.19 120.48 92.07 C 117.12 104.40 113.45 116.65 109.81 128.91 C 109.00 132.31 108.11 135.68 107.16 139.05 C 106.05 143.72 104.60 148.35 104.29 153.16 C 103.99 153.47 103.39 154.09 103.10 154.39 C 103.62 154.39 104.68 154.39 105.20 154.39 C 112.13 148.06 119.20 141.89 125.94 135.36 C 129.15 138.18 131.98 141.43 135.38 144.05 C 135.42 144.35 135.49 144.97 135.53 145.28 C 125.63 153.84 116.49 163.35 105.85 171.06 C 100.77 174.28 94.90 176.95 88.74 176.43 C 84.67 174.97 80.92 172.07 79.80 167.70 C 78.59 160.12 80.67 152.57 82.23 145.20 C 83.03 141.45 84.03 137.76 84.91 134.03 C 87.52 124.33 90.23 114.66 93.13 105.04 C 93.93 102.04 95.48 99.20 95.45 96.02 C 88.33 101.90 81.61 108.21 75.00 114.63 C 71.84 112.04 68.44 109.75 65.33 107.09 C 65.37 106.54 65.45 105.44 65.50 104.88 C 69.85 99.79 74.83 95.26 79.92 90.92 Z" />
</g>
</svg>
