<?xml version="1.0" encoding="UTF-8" ?>
<!DOCTYPE svg PUBLIC "-//W3C//DTD SVG 1.1//EN" "http://www.w3.org/Graphics/SVG/1.1/DTD/svg11.dtd">
<svg id="loginicon" width="30pt" height="30pt" viewBox="0 0 30 30" version="1.1" xmlns="http://www.w3.org/2000/svg">
<g id="#000000ff">
<path fill="#000000" opacity="1.00" d=" M 11.45 6.94 C 13.38 4.39 16.39 5.06 18.50 6.98 C 18.84 10.17 18.41 13.29 16.34 15.84 C 11.44 16.43 11.15 10.38 11.45 6.94 Z" />
<path fill="#000000" opacity="1.00" d=" M 7.72 18.80 C 8.88 17.29 10.79 16.53 12.50 15.79 C 14.16 16.65 15.86 16.65 17.51 15.79 C 20.80 16.70 23.76 19.26 22.90 23.02 C 23.29 25.51 20.41 25.52 18.70 25.73 C 14.98 25.87 10.91 26.35 7.46 24.73 C 6.87 22.82 6.99 20.65 7.72 18.80 Z" />
</g>
</svg>
