<?xml version="1.0" encoding="UTF-8" ?>
<!DOCTYPE svg PUBLIC "-//W3C//DTD SVG 1.1//EN" "http://www.w3.org/Graphics/SVG/1.1/DTD/svg11.dtd">
<svg id="message" width="100%" height="100%" viewBox="0 0 200 200" version="1.1" xmlns="http://www.w3.org/2000/svg">
<g id="#010101ff">
<path fill="#010101" opacity="1.00" d=" M 10.55 0.00 L 106.11 0.00 C 106.42 0.50 107.03 1.49 107.34 1.98 C 101.54 7.63 95.43 13.00 90.23 19.23 C 87.29 22.92 82.68 25.13 77.96 25.05 C 60.30 25.11 42.63 25.02 24.96 25.09 C 25.13 75.03 25.14 124.97 24.95 174.91 C 74.96 175.02 124.97 174.85 174.98 175.01 C 174.90 148.33 174.93 121.64 174.95 94.96 C 174.67 90.56 177.24 86.24 181.22 84.37 C 185.97 82.12 190.57 79.52 195.40 77.43 C 197.27 76.50 199.00 77.95 200.00 79.42 L 200.00 189.33 C 199.02 194.66 194.72 198.91 189.44 200.00 L 10.75 200.00 C 5.39 199.06 1.09 194.78 0.00 189.48 L 0.00 10.38 C 1.15 5.18 5.33 1.06 10.55 0.00 Z" />
<path fill="#010101" opacity="1.00" d=" M 171.26 0.00 L 173.56 0.00 C 188.09 0.83 199.34 14.28 200.00 28.39 L 200.00 32.61 C 199.33 41.32 195.25 49.88 188.25 55.24 C 181.13 60.96 170.90 62.60 162.45 59.03 C 163.36 68.02 157.94 77.54 149.18 80.37 C 144.16 82.30 138.59 81.01 134.09 78.40 C 135.78 88.37 129.21 99.57 118.90 101.37 C 111.33 102.85 104.19 97.79 100.87 91.25 C 88.49 100.45 78.74 112.81 71.12 126.12 C 66.11 135.27 61.81 145.40 62.52 156.06 C 62.97 158.65 61.17 160.91 58.88 161.87 C 55.04 164.01 49.23 160.55 49.92 156.00 C 50.06 150.29 52.05 144.87 53.64 139.46 C 62.19 111.90 73.28 85.00 88.26 60.28 C 99.13 42.83 112.01 26.08 129.05 14.24 C 141.35 5.55 156.11 0.06 171.26 0.00 Z" />
</g>
</svg>
