<?xml version="1.0" encoding="UTF-8" ?>
<!DOCTYPE svg PUBLIC "-//W3C//DTD SVG 1.1//EN" "http://www.w3.org/Graphics/SVG/1.1/DTD/svg11.dtd">
<svg id="twitter" width="100%" height="100%" viewBox="0 0 200 200" version="1.1" xmlns="http://www.w3.org/2000/svg">
<g id="#000000ff">
<path fill="#000000" opacity="1.00" d=" M 107.06 32.06 C 114.94 22.22 127.42 16.29 140.04 16.48 C 151.59 16.41 162.93 21.46 170.84 29.83 C 180.30 27.91 189.37 24.34 197.73 19.53 C 194.63 29.20 187.99 37.52 179.44 42.95 C 186.46 41.93 193.41 40.29 200.00 37.64 L 200.00 41.04 C 194.98 47.66 188.88 53.40 182.23 58.36 C 183.53 89.12 172.56 120.14 152.54 143.50 C 134.58 164.75 108.61 178.88 81.06 182.67 C 53.28 186.87 24.02 181.48 0.00 166.76 L 0.00 165.21 C 21.15 167.10 42.82 160.64 59.57 147.61 C 41.92 147.30 25.44 134.96 20.19 118.10 C 26.44 119.17 32.84 118.93 39.03 117.60 C 33.75 116.06 28.49 114.19 23.97 110.98 C 12.38 103.18 5.08 89.39 5.44 75.39 C 11.30 78.48 17.76 80.30 24.36 80.74 C 15.98 74.80 9.52 66.03 7.11 55.98 C 4.33 45.32 6.04 33.70 11.49 24.16 C 32.69 50.18 64.95 66.84 98.54 68.40 C 95.70 55.80 98.78 42.02 107.06 32.06 Z" />
</g>
</svg>
