<?xml version="1.0" encoding="UTF-8" ?>
<!DOCTYPE svg PUBLIC "-//W3C//DTD SVG 1.1//EN" "http://www.w3.org/Graphics/SVG/1.1/DTD/svg11.dtd">
<svg width="200pt" height="200pt" viewBox="0 0 200 200" version="1.1" xmlns="http://www.w3.org/2000/svg">
<g id="#000000ff">
<path fill="#000000" opacity="1.00" d=" M 75.26 44.24 C 86.94 42.45 99.01 42.06 110.63 44.44 C 114.78 45.06 116.95 49.15 117.18 52.99 C 117.72 61.33 116.73 69.66 116.79 78.00 C 116.83 83.22 116.20 88.55 117.50 93.68 C 118.16 96.16 120.15 98.86 123.02 98.60 C 127.54 96.11 130.83 91.94 133.76 87.79 C 141.09 77.27 147.24 65.94 151.92 54.01 C 152.91 51.68 154.16 48.56 157.14 48.47 C 168.77 48.22 180.41 48.42 192.04 48.13 C 194.74 48.16 198.28 48.36 199.66 51.11 C 200.55 55.19 198.49 59.13 196.72 62.68 C 189.34 76.44 178.71 88.04 169.89 100.84 C 168.33 103.23 166.76 106.05 167.55 109.00 C 168.45 112.17 171.01 114.45 173.23 116.74 C 182.04 125.29 191.45 133.53 197.91 144.11 C 199.49 146.69 200.28 149.91 199.44 152.87 C 197.57 155.71 194.02 156.49 190.84 156.48 C 180.92 156.62 170.98 156.73 161.08 157.02 C 148.96 154.97 142.13 143.87 134.23 135.68 C 131.53 133.19 128.41 129.66 124.35 130.42 C 119.53 132.63 117.81 138.34 117.26 143.21 C 116.60 146.85 117.70 151.14 115.26 154.25 C 111.06 157.91 105.03 156.01 99.98 156.47 C 89.21 157.11 78.32 154.48 68.95 149.16 C 60.47 144.24 52.25 138.59 45.82 131.10 C 26.43 107.89 11.54 81.16 0.00 53.29 L 0.00 51.10 C 1.24 49.42 3.07 48.23 5.22 48.31 C 14.14 48.00 23.08 48.35 32.00 47.90 C 36.18 47.50 40.99 49.27 42.42 53.55 C 46.60 63.69 51.83 73.36 56.97 83.04 C 60.04 88.38 63.35 93.86 68.42 97.53 C 70.10 98.87 72.41 99.17 74.42 98.46 C 76.09 96.66 76.99 94.29 77.46 91.91 C 79.03 83.64 79.15 75.17 78.55 66.79 C 78.11 63.12 77.64 59.31 75.90 55.98 C 73.74 52.42 69.30 51.88 65.81 50.31 C 68.26 47.39 71.33 44.75 75.26 44.24 Z" />
</g>
</svg>
