<?xml version="1.0" encoding="UTF-8" ?>
<!DOCTYPE svg PUBLIC "-//W3C//DTD SVG 1.1//EN" "http://www.w3.org/Graphics/SVG/1.1/DTD/svg11.dtd">
<svg id="vk_small" width="100%" height="100%" viewBox="0 0 21 21" version="1.1" xmlns="http://www.w3.org/2000/svg">
<g id="#000000ff">
<path fill="#000000" opacity="1.00" d=" M 0.00 5.00 C 1.28 5.06 2.55 5.17 3.82 5.35 C 5.36 7.19 6.62 9.25 8.11 11.14 C 8.41 8.86 8.06 6.60 7.33 4.44 C 8.96 4.56 10.58 4.63 12.21 4.66 C 12.29 6.84 12.52 9.01 12.66 11.19 C 13.97 9.21 15.35 7.28 16.45 5.18 C 17.97 5.17 19.48 5.17 21.00 5.13 L 21.00 6.35 C 19.86 8.02 18.63 9.64 17.40 11.25 C 18.61 12.59 19.84 13.91 21.00 15.29 L 21.00 16.47 C 19.47 16.46 17.94 16.51 16.40 16.52 C 15.24 15.45 14.08 14.36 12.91 13.28 C 12.68 14.15 12.23 15.89 12.00 16.76 C 5.57 17.02 2.42 10.87 0.00 5.95 L 0.00 5.00 Z" />
</g>
</svg>
