<?xml version="1.0" encoding="utf-8"?>
<!-- Generator: Adobe Illustrator 16.0.3, SVG Export Plug-In . SVG Version: 6.00 Build 0)  -->
<!DOCTYPE svg PUBLIC "-//W3C//DTD SVG 1.1//EN" "http://www.w3.org/Graphics/SVG/1.1/DTD/svg11.dtd">
<svg version="1.1" id="message" xmlns="http://www.w3.org/2000/svg" xmlns:xlink="http://www.w3.org/1999/xlink" x="0px" y="0px"
	 width="100%" height="100%" viewBox="0 0 200 200" enable-background="new 0 0 200 200" xml:space="preserve">
<g>
	<path fill="#010101" d="M10.59,0h95.52c0.3,0.5,0.91,1.51,1.22,2.01c-4.41,4.37-9.14,8.4-13.31,12.99
		c-2.97,3.02-5.34,6.89-9.37,8.62c-2.38,1.16-5.05,1.45-7.66,1.46c-17.32-0.02-34.64-0.02-51.96,0c0,49.94,0.17,99.88-0.08,149.82
		c49.99,0.14,99.99-0.12,149.98,0.16c0.04-26.72-0.03-53.44,0.02-80.16c-0.27-4.43,2.37-8.75,6.4-10.59
		c4.7-2.23,9.25-4.79,14.02-6.88c1.89-0.93,3.64,0.49,4.63,2.01v109.83c-0.94,5.37-5.27,9.65-10.58,10.73H10.79
		c-5.38-0.91-9.72-5.22-10.79-10.56V10.45C1.11,5.2,5.34,1.04,10.59,0z"/>
	<path fill="#010101" d="M171.27,0h2.31c14.54,0.85,25.79,14.32,26.42,28.44v4.11c-0.65,8.75-4.75,17.34-11.77,22.71
		c-7.12,5.7-17.34,7.34-25.78,3.76c0.96,9.24-4.83,19.01-13.95,21.57c-4.85,1.64-10.1,0.28-14.4-2.2
		c0.86,5.06-0.52,10.26-3.09,14.63c-3.83,6.19-11.75,10.14-18.95,7.97c-5.02-1.33-8.73-5.34-11.19-9.74
		c-12.96,9.65-23.07,22.7-30.8,36.79c-4.1,8.03-7.84,16.74-7.55,25.95c0,2.34,0.43,5.23-1.85,6.74c-3.09,3.09-8.59,1.83-10.43-1.97
		c-0.99-5.14,0.81-10.29,2.15-15.21c8.7-28.98,20.15-57.31,35.85-83.25c10.14-16.26,21.97-31.89,37.36-43.54
		C138.62,6.68,154.66,0.04,171.27,0z"/>
</g>
</svg>
