<?xml version="1.0" encoding="utf-8"?>
<!-- Generator: Adobe Illustrator 16.0.3, SVG Export Plug-In . SVG Version: 6.00 Build 0)  -->
<!DOCTYPE svg PUBLIC "-//W3C//DTD SVG 1.1//EN" "http://www.w3.org/Graphics/SVG/1.1/DTD/svg11.dtd">
<svg version="1.1" id="twitter" xmlns="http://www.w3.org/2000/svg" xmlns:xlink="http://www.w3.org/1999/xlink" x="0px" y="0px"
	 width="100%" height="100%" viewBox="0 0 200 200" enable-background="new 0 0 200 200" xml:space="preserve">
<g>
	<path d="M105.74,33.77c7.78-10.82,20.95-17.5,34.29-17.29c11.63-0.11,22.9,5.08,30.93,13.38c9.4-2.03,18.44-5.51,26.76-10.33
		c-3.08,9.67-9.73,17.97-18.26,23.41c7.02-1,13.96-2.66,20.54-5.3v3.4c-5.03,6.62-11.12,12.37-17.78,17.33
		c1.33,31-9.84,62.26-30.15,85.68c-17.46,20.38-42.33,34.13-68.84,38.29c-28.42,4.78-58.58-0.47-83.23-15.57v-1.56
		c21.15,1.89,42.82-4.58,59.57-17.6c-17.65-0.31-34.14-12.65-39.38-29.51c6.24,1.06,12.66,0.86,18.83-0.55
		c-5.73-1.54-11.36-3.75-16.14-7.34C11.91,102.31,5.1,88.94,5.45,75.39c5.85,3.09,12.31,4.91,18.91,5.35
		C16,74.82,9.55,66.07,7.13,56.04C4.34,45.37,6,33.69,11.53,24.16C32.67,50.21,64.97,66.82,98.54,68.4
		C95.89,56.51,98.41,43.54,105.74,33.77z"/>
</g>
</svg>
